<?xml version="1.0" encoding="UTF-8"?>
<svg version="1.1" xmlns="http://www.w3.org/2000/svg" width="2000" height="853">
<path d="M0 0 C9.20024169 8.59323997 17.79834134 17.35139559 25.55664062 27.296875 C26.34554688 28.28042969 27.13445312 29.26398438 27.94726562 30.27734375 C63.93449986 75.53024031 82.76050007 132.31030886 82.80664062 189.921875 C82.80765274 191.06855652 82.80765274 191.06855652 82.8086853 192.23840332 C82.72597754 251.72306017 62.16017813 309.1710072 24.55664062 355.296875 C24.10885254 355.84762695 23.66106445 356.39837891 23.19970703 356.96582031 C12.24775239 370.32743338 0.25760952 382.73652935 -13.44335938 393.296875 C-14.44625 394.09351563 -15.44914062 394.89015625 -16.48242188 395.7109375 C-70.88827064 438.70168432 -140.3834686 457.21003986 -209.04736328 449.40600586 C-221.37889013 447.8767801 -233.41882042 445.40771214 -245.44335938 442.296875 C-246.26336426 442.08724121 -247.08336914 441.87760742 -247.92822266 441.66162109 C-298.64657339 428.39745004 -347.11534609 396.6035365 -379.44335938 355.296875 C-380.18440918 354.36246582 -380.18440918 354.36246582 -380.94042969 353.40917969 C-409.77219188 316.9965768 -428.40954764 274.25967083 -435.44335938 228.296875 C-435.61907471 227.17442383 -435.61907471 227.17442383 -435.79833984 226.02929688 C-443.73546733 172.48611885 -432.83587151 115.82091565 -407.44335938 68.296875 C-406.92370605 67.31557617 -406.92370605 67.31557617 -406.39355469 66.31445312 C-395.18799015 45.29761204 -380.9515259 26.42197705 -364.44335938 9.296875 C-363.9092041 8.74080566 -363.37504883 8.18473633 -362.82470703 7.61181641 C-355.7580685 0.29317293 -348.48419484 -6.44663224 -340.44335938 -12.703125 C-339.00476563 -13.86714844 -339.00476563 -13.86714844 -337.53710938 -15.0546875 C-260.49596235 -76.33741809 -151.804362 -85.72582254 0 0 Z M-351.36132812 26.30859375 C-353.09556388 28.27351169 -354.76877047 30.28089995 -356.44335938 32.296875 C-357.2503125 33.21597656 -358.05726563 34.13507813 -358.88867188 35.08203125 C-371.02616711 48.95691468 -380.99636934 63.9259806 -389.44335938 80.296875 C-389.85827637 81.09013184 -390.27319336 81.88338867 -390.70068359 82.70068359 C-419.54396477 138.38008182 -423.93781653 203.47745132 -405.5402832 263.14477539 C-395.0470974 295.68929891 -377.99467103 324.08527258 -355.72167969 349.81884766 C-354.55786317 351.16448272 -353.40248391 352.51740334 -352.24804688 353.87109375 C-348.59248183 358.09291299 -344.81320872 361.90305422 -340.54492188 365.50390625 C-338.28137884 367.43507029 -336.12051555 369.45648873 -333.94335938 371.484375 C-323.36045928 381.01061072 -311.74400374 389.15784854 -299.44335938 396.296875 C-298.25826923 397.00879121 -297.07338029 397.72104247 -295.88867188 398.43359375 C-272.15371186 412.47772972 -246.3852628 420.98493211 -219.44335938 426.296875 C-218.62722168 426.46348633 -217.81108398 426.63009766 -216.97021484 426.80175781 C-159.25600453 438.1173509 -95.14272235 423.3656582 -46.546875 391.03515625 C-35.58468697 383.58957399 -25.43609846 375.21837883 -15.65429688 366.28515625 C-13.89255855 364.7008368 -12.1124715 363.20296502 -10.25585938 361.734375 C-7.30466123 359.17666994 -4.85604973 356.46383842 -2.33398438 353.4921875 C-1.08498401 352.04190195 0.19635155 350.61878142 1.50976562 349.2265625 C14.93399818 334.95710049 25.45270758 318.57478667 34.55664062 301.296875 C34.99991699 300.45962891 35.44319336 299.62238281 35.89990234 298.75976562 C64.79761982 243.35720395 69.01432503 177.70211302 50.60229492 118.34692383 C40.05832332 85.75794441 23.060058 54.86624806 -0.76367188 30.09375 C-3.15666483 27.59610721 -5.43499203 25.04052663 -7.69335938 22.421875 C-11.32509665 18.32224519 -15.25081572 14.80954671 -19.44335938 11.296875 C-20.41273438 10.45125 -21.38210938 9.605625 -22.38085938 8.734375 C-65.01842323 -28.3369443 -120.46767668 -48.2041704 -176.75585938 -48.078125 C-177.67444733 -48.07758118 -178.59303528 -48.07703735 -179.53945923 -48.07647705 C-244.30663717 -47.90095815 -306.62130422 -20.61831523 -351.36132812 26.30859375 Z " fill="#AA7555" transform="translate(1177.443359375,70.703125)"/>
<path d="M0 0 C10.23 0 20.46 0 31 0 C31.33 47.52 31.66 95.04 32 144 C40.25 135.75 48.5 127.5 57 119 C61.1725131 121.08625655 63.86737361 123.61158887 67.078125 126.8828125 C67.93528107 127.74421341 67.93528107 127.74421341 68.80975342 128.62301636 C70.62792945 130.4523581 72.43901492 132.28854193 74.25 134.125 C75.48391329 135.36894774 76.71828322 136.6124427 77.953125 137.85546875 C80.97406743 140.89842367 83.98867092 143.94753254 87 147 C89.85779017 145.70280076 91.91008536 144.3363174 94.11621094 142.11083984 C94.69651062 141.5303891 95.2768103 140.94993835 95.87469482 140.35189819 C96.48838928 139.72788116 97.10208374 139.10386414 97.734375 138.4609375 C98.37240051 137.82008209 99.01042603 137.17922668 99.66778564 136.51895142 C101.69994069 134.47562179 103.72502218 132.42544018 105.75 130.375 C107.1284453 128.9865214 108.50734636 127.5984951 109.88671875 126.2109375 C113.26311894 122.81251303 116.63319288 119.40792746 120 116 C124.29067546 117.65236651 127.1429553 120.8905207 130.296875 124.1015625 C130.89050842 124.69802582 131.48414185 125.29448914 132.09576416 125.9090271 C133.98526627 127.8096981 135.86768392 129.71721474 137.75 131.625 C139.03209065 132.91712468 140.31463761 134.20879676 141.59765625 135.5 C144.73708432 138.66144479 147.87017801 141.8290461 151 145 C149.49053489 148.18086518 147.92058175 150.29869906 145.375 152.75 C144.74335937 153.36359375 144.11171875 153.9771875 143.4609375 154.609375 C142.97882813 155.06828125 142.49671875 155.5271875 142 156 C138.97532189 154.62818803 136.71113791 153.03464311 134.25 150.8125 C133.21746094 149.89210938 133.21746094 149.89210938 132.1640625 148.953125 C130.69951038 147.63132706 129.23599759 146.30837677 127.7734375 144.984375 C126.70996094 144.03304687 126.70996094 144.03304687 125.625 143.0625 C124.65433594 142.18271484 124.65433594 142.18271484 123.6640625 141.28515625 C122.08660942 139.79625467 122.08660942 139.79625467 120 140 C118.99330923 141.119338 118.04211244 142.28876718 117.1171875 143.4765625 C114.16311192 146.99419423 111.18811905 149.30979354 107.3203125 151.7734375 C99.01427063 157.6348918 91.55143671 163.77197119 89.32714844 174.13476562 C87.02763886 191.17705997 88.02424644 208.75258435 89.00344849 225.87057495 C88.99897791 229.9275262 88.44801559 233.96785969 88 238 C110.77 238 133.54 238 157 238 C157 242.95 157 247.9 157 253 C105.19 253 53.38 253 0 253 C0 169.51 0 86.02 0 0 Z " fill="#E5B7A4" transform="translate(854,135)"/>
<path d="M0 0 C6.34770002 -0.38313125 12.69239406 -0.64405504 19.04907227 -0.82397461 C21.20612904 -0.89901249 23.36243269 -1.00109592 25.5168457 -1.1315918 C42.8539913 -2.15472814 42.8539913 -2.15472814 47.99972534 1.36962891 C51.45650902 4.82141269 53.80575302 8.8189252 56.02603149 13.14120483 C57.31015473 15.59192274 58.87318435 17.78640253 60.49609375 20.0234375 C61.4788149 21.47243329 62.45931168 22.92294033 63.4375 24.375 C73.15727242 38.68031021 83.21578961 52.73426073 93.36328125 66.73828125 C94.98509064 68.97939733 96.60265132 71.22351315 98.21875 73.46875 C113.93149889 95.29641122 113.93149889 95.29641122 130.3046875 116.62890625 C132 119 132 119 132 121 C132.66 121 133.32 121 134 121 C133.89218172 109.43810899 133.779486 97.87627661 133.66066074 86.31449318 C133.60562943 80.94519616 133.55224248 75.57589353 133.50268555 70.20654297 C133.45474832 65.01936798 133.40239752 59.83225417 133.34705925 54.64515305 C133.3267679 52.67176219 133.30803421 50.69835464 133.29092598 48.72493362 C133.26658646 45.94888571 133.23657626 43.17295021 133.20532227 40.39697266 C133.1995668 39.59135895 133.19381134 38.78574524 133.18788147 37.95571899 C133.13575755 33.85015613 132.97352259 29.75797109 132.67466736 25.66268921 C132.61851226 24.86576345 132.56235716 24.0688377 132.50450039 23.24776268 C131.88703638 20.49669928 130.94104543 19.03326085 129 17 C125.61592242 16.33438665 125.61592242 16.33438665 121.875 16.3125 C115.06892895 16.06892895 115.06892895 16.06892895 114 15 C114.06465325 13.41305659 114.20216967 11.8288284 114.375 10.25 C114.46523437 9.38890625 114.55546875 8.5278125 114.6484375 7.640625 C114.98977084 5.07683233 115.49276233 2.53618833 116 0 C134.81 0 153.62 0 173 0 C173 11 173 11 172 14 C169.671875 14.9921875 169.671875 14.9921875 166.75 15.875 C161.86333723 17.53773461 159.09868219 18.86842374 156 23 C155.08235518 25.86057313 154.83840089 28.5513065 154.73461914 31.54394531 C154.70103302 32.45513123 154.6674469 33.36631714 154.63284302 34.30511475 C154.58448807 35.80150482 154.58448807 35.80150482 154.53515625 37.328125 C154.49760223 38.3925885 154.46004822 39.457052 154.4213562 40.55377197 C154.29718801 44.11904092 154.17971197 47.68449605 154.0625 51.25 C153.97677183 53.76107208 153.89091291 56.2721397 153.80493164 58.78320312 C153.30562873 73.5884244 152.86700111 88.39506959 152.4609375 103.203125 C152.43885412 104.00699898 152.41677074 104.81087296 152.39401817 105.63910675 C152.17585022 113.59446699 151.96116679 121.54990052 151.75645351 129.50561905 C150.98004013 159.59624489 150.98004013 159.59624489 150 173 C148.625 173.5 147.25 174 145.875 174.5 C144.72644531 174.91765625 144.72644531 174.91765625 143.5546875 175.34375 C140.49002347 176.13100314 138.14915983 176.41057595 135 176 C133.2265625 174.18359375 133.2265625 174.18359375 131.625 171.4375 C130.95210937 170.34695313 130.27921875 169.25640625 129.5859375 168.1328125 C128.99570801 167.1722998 128.99570801 167.1722998 128.39355469 166.19238281 C125.49508487 161.63242153 122.34895655 157.23740532 119.25 152.8125 C118.20259644 151.31058105 118.20259644 151.31058105 117.1340332 149.77832031 C107.89308862 136.52893262 98.55925828 123.35376542 89.0859375 110.26953125 C86.37529834 106.52384495 83.68295277 102.76554775 81 99 C71.50974663 85.69280454 61.90080535 72.47621216 52.19140625 59.328125 C48.43404511 54.23815311 44.71153182 49.12347921 41 44 C39.81171785 63.86031067 39.81232526 83.71623049 39.81469727 103.60449219 C39.81480048 108.36001054 39.800945 113.11538488 39.78392506 117.87086868 C39.77284541 121.55792936 39.7707765 125.2449541 39.77130699 128.93202972 C39.77012864 130.6879401 39.76571495 132.44385146 39.75797462 134.19974518 C39.74822038 136.63229494 39.75103014 139.06451572 39.75708008 141.49707031 C39.75146057 142.21691101 39.74584106 142.93675171 39.74005127 143.67840576 C39.76334951 147.34906807 39.90468609 148.85702913 42 152 C44.02276681 152.50621513 44.02276681 152.50621513 46.3515625 152.51171875 C47.20234375 152.54716797 48.053125 152.58261719 48.9296875 152.61914062 C50.26386719 152.65297852 50.26386719 152.65297852 51.625 152.6875 C52.5221875 152.72166016 53.419375 152.75582031 54.34375 152.79101562 C56.56237538 152.87362402 58.7805994 152.94272719 61 153 C62.53760842 156.07521683 61.36599236 158.34675118 60.5625 161.625 C60.27503906 162.81351563 59.98757813 164.00203125 59.69140625 165.2265625 C59.46324219 166.14179687 59.23507812 167.05703125 59 168 C57.97753174 167.99476318 56.95506348 167.98952637 55.90161133 167.98413086 C52.04550073 167.96579472 48.18939383 167.95446533 44.33325195 167.94506836 C42.67601876 167.94009265 41.01878983 167.93330968 39.36157227 167.92456055 C30.44881708 167.87874354 21.63383372 167.93857753 12.75 168.77734375 C8.49183478 169.12210997 4.26974131 169.06372748 0 169 C0.66 164.38 1.32 159.76 2 155 C3.5675 154.4225 5.135 153.845 6.75 153.25 C12.11860481 151.12318274 12.11860481 151.12318274 16 147 C17.66448831 141.36258642 18.34256653 136.17493243 18.50244141 130.31860352 C18.53199417 129.48952484 18.56154694 128.66044617 18.59199524 127.8062439 C18.68694266 125.08067503 18.76948561 122.35489065 18.8515625 119.62890625 C18.91532849 117.70480771 18.97974276 115.78073055 19.04476929 113.85667419 C19.17939911 109.81955954 19.30825302 105.78231674 19.43261719 101.74487305 C19.58983566 96.64588464 19.75808699 91.54733968 19.9301033 86.44883156 C20.33894461 74.3005242 20.70222843 62.15155423 21 50 C21.01832382 49.26268394 21.03664764 48.52536789 21.05552673 47.76570892 C21.15845029 43.49883323 21.22871157 39.2327018 21.2734375 34.96484375 C21.29338776 33.98906876 21.31333801 33.01329376 21.33389282 32.00794983 C21.34738536 27.18148154 21.20482338 23.88732318 18 20 C13.13568885 16.67178711 7.41056474 15.84222039 1.73046875 14.6484375 C-1 14 -1 14 -2 13 C-1.93579251 11.37146465 -1.7987936 9.74550788 -1.625 8.125 C-1.53476563 7.24070312 -1.44453125 6.35640625 -1.3515625 5.4453125 C-1 3 -1 3 0 0 Z " fill="#874E26" transform="translate(1825,675)"/>
<path d="M0 0 C8.27356976 9.04760436 11.13268364 18.90164563 10.87109375 31.01171875 C9.57052175 44.39608627 2.87111703 56.60391364 -7.4375 65.1875 C-12.29748574 68.90637423 -17.37227687 72.16407629 -22.61987305 75.30444336 C-23.52166794 75.84443466 -24.42346283 76.38442596 -25.35258484 76.94078064 C-26.04060684 77.35219803 -26.72862885 77.76361542 -27.4375 78.1875 C-23.46020076 84.13246812 -19.4758609 90.07267227 -15.48681641 96.00976562 C-14.13333964 98.0259526 -12.78142058 100.04318625 -11.43115234 102.06152344 C-9.47912351 104.97874613 -7.5213418 107.89203649 -5.5625 110.8046875 C-4.96945068 111.69364716 -4.37640137 112.58260681 -3.76538086 113.49850464 C4.92411312 126.38503387 12.06875713 136.28824138 27.5625 140.1875 C29.56592734 140.84379516 31.56781118 141.50510646 33.5625 142.1875 C33.42212479 144.00043089 33.27505111 145.8128443 33.125 147.625 C33.00318359 149.13900391 33.00318359 149.13900391 32.87890625 150.68359375 C32.5625 153.1875 32.5625 153.1875 31.5625 154.1875 C2.83480236 158.81228799 2.83480236 158.81228799 -5.515625 153.69140625 C-11.91870331 148.68086733 -17.05493841 143.17364928 -21.2578125 136.19921875 C-21.76600021 135.35861908 -21.76600021 135.35861908 -22.28445435 134.5010376 C-25.71754086 128.7905001 -29.02283718 123.00619847 -32.30456543 117.20767212 C-33.34182085 115.38600563 -34.39238592 113.57257841 -35.44628906 111.76049805 C-38.92207004 105.76355409 -42.25582661 99.80739531 -44.92138672 93.39282227 C-47.54817284 88.31053595 -47.54817284 88.31053595 -51.4375 84.1875 C-54.88713409 83.23070779 -58.20219505 83.22496122 -61.765625 83.26171875 C-62.69584473 83.24475952 -63.62606445 83.22780029 -64.58447266 83.21032715 C-66.87019734 83.17291638 -69.15169317 83.16622604 -71.4375 83.1875 C-71.48709611 89.32559036 -71.52331249 95.46356293 -71.54736328 101.60180664 C-71.55739427 103.68809034 -71.57102226 105.77436008 -71.58837891 107.8605957 C-71.61275494 110.86673438 -71.62401236 113.87268645 -71.6328125 116.87890625 C-71.64313507 117.80522354 -71.65345764 118.73154083 -71.66409302 119.68592834 C-71.66498908 124.90812308 -71.29754963 129.28296368 -69.4375 134.1875 C-65.96017162 137.09237853 -62.54696862 137.7432902 -58.125 138.375 C-57.05636719 138.53355469 -55.98773437 138.69210937 -54.88671875 138.85546875 C-54.07847656 138.96503906 -53.27023437 139.07460938 -52.4375 139.1875 C-52.57954741 140.77117747 -52.72630153 142.35443318 -52.875 143.9375 C-52.99681641 145.26007813 -52.99681641 145.26007813 -53.12109375 146.609375 C-53.4375 149.1875 -53.4375 149.1875 -54.4375 153.1875 C-75.8875 153.5175 -97.3375 153.8475 -119.4375 154.1875 C-118.3125 144.0625 -118.3125 144.0625 -117.4375 139.1875 C-116.22513672 138.91486328 -116.22513672 138.91486328 -114.98828125 138.63671875 C-113.38533203 138.25966797 -113.38533203 138.25966797 -111.75 137.875 C-110.69425781 137.63136719 -109.63851562 137.38773438 -108.55078125 137.13671875 C-104.52336387 135.90878597 -101.28282574 134.70908633 -99.1875 130.9375 C-97.30058115 124.01879755 -97.28908187 117.22410286 -97.29223633 110.09912109 C-97.28887772 109.0039769 -97.2855191 107.9088327 -97.28205872 106.78050232 C-97.27258815 103.17396907 -97.2706079 99.5674824 -97.26953125 95.9609375 C-97.26631717 93.44943218 -97.26295298 90.93792705 -97.25944519 88.42642212 C-97.25346455 83.16936949 -97.2515614 77.91232865 -97.25219727 72.65527344 C-97.25279901 66.58457596 -97.24222245 60.51396707 -97.2264536 54.44329202 C-97.21179538 48.59081627 -97.20820929 42.7383756 -97.20880699 36.88588333 C-97.20762607 34.40036277 -97.20319801 31.91484157 -97.19547462 29.42933273 C-97.18569494 25.95850969 -97.18854436 22.48791646 -97.19458008 19.01708984 C-97.18896057 17.98943008 -97.18334106 16.96177032 -97.17755127 15.90296936 C-97.18174576 14.95541275 -97.18594025 14.00785614 -97.19026184 13.03158569 C-97.18971707 12.21198553 -97.18917231 11.39238537 -97.18861103 10.54794884 C-97.47922252 7.79180599 -98.24160604 5.68093353 -99.4375 3.1875 C-102.65710881 0.76554202 -105.76463597 0.97722035 -109.6875 1.0625 C-111.30398438 1.08957031 -111.30398438 1.08957031 -112.953125 1.1171875 C-114.18289063 1.15199219 -114.18289063 1.15199219 -115.4375 1.1875 C-116.41548721 -2.60818461 -116.36403069 -5.3130999 -115.5 -9.125 C-115.30535156 -10.00800781 -115.11070312 -10.89101563 -114.91015625 -11.80078125 C-114.75417969 -12.46464844 -114.59820313 -13.12851562 -114.4375 -13.8125 C-106.10862052 -13.96773371 -97.77965551 -14.11588077 -89.45050049 -14.2554636 C-85.58118888 -14.32051927 -81.71194667 -14.38783807 -77.84277344 -14.46069336 C-74.09511384 -14.53117122 -70.34739032 -14.59522886 -66.59954834 -14.65519524 C-65.18369701 -14.67890859 -63.76787968 -14.70477301 -62.35211182 -14.73303413 C-41.23069298 -15.15042935 -16.46409717 -15.42167761 0 0 Z M-67.4375 1.1875 C-68.73594718 3.78439436 -68.73651923 5.91730685 -68.9375 8.8203125 C-69.0605249 10.59704346 -69.0605249 10.59704346 -69.18603516 12.40966797 C-69.26901855 13.69760254 -69.35200195 14.98553711 -69.4375 16.3125 C-69.48074402 16.96623596 -69.52398804 17.61997192 -69.56854248 18.29351807 C-70.59442292 33.91106706 -71.05576809 49.54269865 -71.4375 65.1875 C-63.50350714 69.15449643 -48.32694606 69.75469585 -39.94921875 67.07421875 C-30.06521885 62.37526798 -22.18279019 54.59813715 -18.4375 44.1875 C-16.05411675 34.50903155 -16.59348512 24.95134271 -21.4375 16.1875 C-27.22039951 7.43053788 -37.21212129 3.71574557 -47.15234375 1.61328125 C-51.23008989 1.08477432 -55.20676879 1.07976737 -59.3125 1.125 C-60.488125 1.13176758 -60.488125 1.13176758 -61.6875 1.13867188 C-63.60420014 1.15035907 -65.52086048 1.16829092 -67.4375 1.1875 Z " fill="#E6B8A4" transform="translate(956.4375,689.8125)"/>
<path d="M0 0 C16.07163952 15.00927691 24.8256241 34.29006854 25.640625 56.28125 C26.04285735 84.80677702 19.38993832 108.68478677 -0.6953125 129.58984375 C-21.62413441 149.44954628 -46.53756611 154.93897154 -74.62988281 154.28857422 C-93.32526727 153.45773442 -110.32332439 144.53168797 -123.12109375 131.16796875 C-140.45241756 110.86480945 -143.39321509 85.84439401 -141.6953125 60.15234375 C-139.12576739 37.25781862 -127.38324846 16.93217927 -110.109375 1.90234375 C-79.10325424 -21.93419353 -30.95639986 -26.43981037 0 0 Z M-98.1484375 18.13671875 C-112.74560768 35.42048466 -113.67409433 56.55599628 -112.6953125 78.15234375 C-110.90640549 97.85833506 -102.5426522 115.16386275 -87.6953125 128.15234375 C-85.14706399 130.18695313 -82.63452489 131.74430576 -79.6953125 133.15234375 C-78.89480469 133.54292969 -78.09429688 133.93351563 -77.26953125 134.3359375 C-65.40227161 139.18691068 -49.2278438 139.32068984 -37.328125 134.47265625 C-23.74496918 127.66092529 -13.16065703 117.71163232 -8.25 103.01953125 C-0.79399364 79.10610436 -2.00758372 52.83508661 -13.4453125 30.27734375 C-21.41737986 16.69832365 -32.71045488 7.70232561 -47.6953125 3.15234375 C-66.6333423 -0.76929283 -84.98847635 3.8474811 -98.1484375 18.13671875 Z " fill="#9A633F" transform="translate(1767.6953125,690.84765625)"/>
<path d="M0 0 C0.62519531 0.60199219 1.25039063 1.20398438 1.89453125 1.82421875 C16.2098632 16.72121204 21.10540849 38.62728861 21.03515625 58.70703125 C20.42086976 84.53342794 11.4420039 108.3203765 -7.52734375 126.41015625 C-17.96502481 135.34579217 -29.92407829 141.82582427 -43 146 C-43.99386719 146.3196875 -44.98773437 146.639375 -46.01171875 146.96875 C-67.28678042 152.62116491 -91.48690841 150.33737462 -110.84765625 139.9140625 C-129.00348782 128.89007555 -139.63448143 112.18043219 -145 92 C-150.68166045 68.41069772 -147.49298954 41.03102378 -134.88330078 20.15087891 C-121.37295938 -1.02119587 -101.51376149 -15.76979011 -76.875 -21.3125 C-75.25461494 -21.57229727 -73.62883209 -21.79987911 -72 -22 C-70.52466797 -22.19916016 -70.52466797 -22.19916016 -69.01953125 -22.40234375 C-43.07322594 -25.1095198 -18.74180303 -18.67638661 0 0 Z M-102.15625 11.73828125 C-116.61553524 29.47541293 -119.4411946 50.46463618 -117.71875 72.6171875 C-115.44012012 91.94172166 -108.3747559 108.64085186 -94 122 C-90.80618818 124.35822152 -87.56787647 126.26790271 -84 128 C-83.33871094 128.32484375 -82.67742187 128.6496875 -81.99609375 128.984375 C-71.84330369 133.63316872 -57.00821321 133.80797664 -46.3125 130.8125 C-44.85490678 130.25856352 -43.4147715 129.65562582 -42 129 C-41.26136719 128.67128906 -40.52273438 128.34257813 -39.76171875 128.00390625 C-25.57105245 120.92082756 -17.60127372 108.94869635 -12.04296875 94.53125 C-9.52673511 86.0118672 -8.63522039 77.67275655 -8.6875 68.8125 C-8.69241455 67.8136377 -8.6973291 66.81477539 -8.70239258 65.78564453 C-9.0154142 45.80041774 -14.66044273 26.72714862 -28.28125 11.62109375 C-40.02772253 0.54203443 -53.38275316 -3.51510309 -69.22265625 -3.24609375 C-81.92901938 -2.41827485 -93.41335388 2.33250161 -102.15625 11.73828125 Z " fill="#D09F87" transform="translate(786,696)"/>
<path d="M0 0 C0.99 0.99 0.99 0.99 2 2 C1.83032227 4.50732422 1.83032227 4.50732422 1.25390625 7.6796875 C-0.02613277 15.14230469 -1.06261507 22.62016024 -2.0625 30.125 C-2.23587891 31.40503906 -2.40925781 32.68507813 -2.58789062 34.00390625 C-3.46947788 40.60398858 -4.254924 47.18276408 -4.75170898 53.82373047 C-5 56 -5 56 -6 59 C-9.04213267 60.52106634 -12.28047572 60.37429338 -15.625 60.5625 C-16.33140625 60.60568359 -17.0378125 60.64886719 -17.765625 60.69335938 C-19.51018537 60.79944751 -21.25506697 60.90022889 -23 61 C-22.98428955 60.3201001 -22.9685791 59.6402002 -22.95239258 58.93969727 C-22.88944943 55.81405185 -22.85082274 52.68854042 -22.8125 49.5625 C-22.78736328 48.49322266 -22.76222656 47.42394531 -22.73632812 46.32226562 C-22.67678473 39.83203522 -22.98329631 33.87300662 -26 28 C-34.55804162 21.01843973 -50.49718858 22.68304449 -61.08691406 22.73925781 C-63.5243343 22.75010833 -65.96103764 22.73923191 -68.3984375 22.7265625 C-69.96354328 22.72788215 -71.52864861 22.7304405 -73.09375 22.734375 C-73.81461792 22.73032654 -74.53548584 22.72627808 -75.27819824 22.72210693 C-80.96949791 22.72754126 -80.96949791 22.72754126 -86 25 C-89.07185214 32.57540893 -88.55697124 41.23355915 -88.8515625 49.3125 C-88.91523712 50.89293313 -88.9796511 52.47333663 -89.04476929 54.05371094 C-89.21321587 58.18961495 -89.37168953 62.32584172 -89.52801514 66.46221924 C-89.68968142 70.69250402 -89.86087918 74.92240218 -90.03125 79.15234375 C-90.36344093 87.43454895 -90.68508597 95.71711996 -91 104 C-56.39150842 103.6004982 -56.39150842 103.6004982 -22 100 C-21.17801631 103.36873746 -20.91708099 105.80275664 -21.7421875 109.171875 C-21.92136719 109.91824219 -22.10054688 110.66460938 -22.28515625 111.43359375 C-22.47980469 112.19800781 -22.67445312 112.96242188 -22.875 113.75 C-23.06191406 114.52988281 -23.24882813 115.30976562 -23.44140625 116.11328125 C-24.84754824 121.84754824 -24.84754824 121.84754824 -26 123 C-27.58870687 123.0882009 -29.18133454 123.1069134 -30.77246094 123.09765625 C-31.79152527 123.09435303 -32.8105896 123.0910498 -33.86053467 123.08764648 C-34.97390198 123.07934814 -36.08726929 123.0710498 -37.234375 123.0625 C-38.37851868 123.05871338 -39.52266235 123.05492676 -40.70147705 123.05102539 C-45.61108765 123.03467198 -50.520616 123.00685075 -55.43017578 122.97949219 C-59.01073815 122.96122156 -62.59128613 122.94923247 -66.171875 122.9375 C-67.26095154 122.92920166 -68.35002808 122.92090332 -69.47210693 122.91235352 C-77.02520824 122.88874693 -84.47839273 123.31926989 -92 124 C-92.06966731 132.4844046 -92.1228958 140.96868866 -92.15543652 149.45330906 C-92.17105847 153.39353641 -92.19223273 157.33356732 -92.22631836 161.27368164 C-92.25903646 165.07975622 -92.27687909 168.88564244 -92.28463173 172.69184685 C-92.290153 174.1402476 -92.3009346 175.58863864 -92.31719017 177.03695869 C-92.73143686 187.51844423 -92.73143686 187.51844423 -89 197 C-84.77697189 199.92796119 -81.35457997 200.36267771 -76.2890625 200.29296875 C-74.42314453 200.2784668 -74.42314453 200.2784668 -72.51953125 200.26367188 C-71.23433594 200.23853516 -69.94914062 200.21339844 -68.625 200.1875 C-67.31660156 200.17396484 -66.00820312 200.16042969 -64.66015625 200.14648438 C-61.43968156 200.1112237 -58.22005394 200.06193633 -55 200 C-55.14194764 202.06277107 -55.28872216 204.12521031 -55.4375 206.1875 C-55.55931641 207.91033203 -55.55931641 207.91033203 -55.68359375 209.66796875 C-55.95403812 212.51598171 -56.37521747 215.21210482 -57 218 C-57.95028076 217.96970703 -58.90056152 217.93941406 -59.87963867 217.90820312 C-69.89705277 217.59205978 -79.91506237 217.30947608 -89.9342041 217.05395508 C-91.72282325 217.00723939 -93.51132761 216.95616747 -95.29980469 216.90429688 C-109.14121112 216.52587777 -122.55074664 217.85948607 -136.26538086 219.72460938 C-139.16370763 220.01648623 -142.08701353 220 -145 220 C-144.67 214.72 -144.34 209.44 -144 204 C-142.02 203.443125 -140.04 202.88625 -138 202.3125 C-131.07805932 200.16353149 -125.05254944 198.24435234 -121.0625 191.9375 C-119.68270795 188.12278081 -118.87818631 184.85723648 -118.84178162 180.79762268 C-118.8319928 179.96525589 -118.82220398 179.1328891 -118.81211853 178.27529907 C-118.80636307 177.36919891 -118.8006076 176.46309875 -118.79467773 175.52954102 C-118.78477814 174.5673616 -118.77487854 173.60518219 -118.76467896 172.61384583 C-118.73295898 169.41055778 -118.70819474 166.20725629 -118.68359375 163.00390625 C-118.66296352 160.74087701 -118.64196575 158.4778511 -118.62062073 156.21482849 C-118.57656051 151.43726631 -118.53570719 146.65969111 -118.49731445 141.88208008 C-118.44920672 135.90330208 -118.39536531 129.9245954 -118.33937645 123.94588661 C-118.20992538 110.07998958 -118.10757518 96.21404831 -118.02181244 82.34781647 C-118.00013563 79.02081616 -117.97522056 75.6938538 -117.94952393 72.36688232 C-117.9099998 67.14281672 -117.88141137 61.91879901 -117.86122322 56.69462395 C-117.85232663 54.78160614 -117.84002888 52.86860046 -117.8239727 50.95562935 C-117.74411936 41.10327235 -117.833193 31.67569108 -120 22 C-122.74529605 21.28636161 -125.27414712 20.83394674 -128.109375 20.68359375 C-128.86347656 20.64169922 -129.61757812 20.59980469 -130.39453125 20.55664062 C-131.56048828 20.49766602 -131.56048828 20.49766602 -132.75 20.4375 C-133.54277344 20.39431641 -134.33554688 20.35113281 -135.15234375 20.30664062 C-137.10137815 20.20097009 -139.05066748 20.10002034 -141 20 C-142.48959804 17.02080393 -141.65011186 14.75137753 -141.125 11.5 C-140.94195312 10.3346875 -140.75890625 9.169375 -140.5703125 7.96875 C-140 5 -140 5 -139 3 C-137.81381073 3.00444122 -136.62762146 3.00888245 -135.40548706 3.01345825 C-124.083413 3.05446318 -112.7613545 3.08420024 -101.43922234 3.10362434 C-95.6220471 3.11394693 -89.80493302 3.1278879 -83.98779297 3.15087891 C-43.83531951 3.56805407 -43.83531951 3.56805407 -3.85498047 0.30908203 C-2.58283691 0.20708496 -1.31069336 0.10508789 0 0 Z " fill="#864D25" transform="translate(147,626)"/>
<path d="M0 0 C0.99 0.99 0.99 0.99 2 2 C1.79845342 5.06350804 1.46485441 7.97268366 1 11 C0.8570752 11.93521484 0.71415039 12.87042969 0.56689453 13.83398438 C0.07476251 16.97420657 -0.43118075 20.11203616 -0.9375 23.25 C-2.44379145 32.70653828 -3.63393805 42.12387844 -4.31616211 51.67675781 C-4.79511184 57.79511184 -4.79511184 57.79511184 -7 60 C-9.56916657 60.30599063 -12.04758384 60.51087087 -14.625 60.625 C-15.68460938 60.68300781 -15.68460938 60.68300781 -16.765625 60.7421875 C-18.50998524 60.83647724 -20.25495691 60.91932891 -22 61 C-22.01458252 60.28457031 -22.02916504 59.56914063 -22.04418945 58.83203125 C-22.11919213 55.55417564 -22.21567955 52.27728083 -22.3125 49 C-22.33505859 47.87464844 -22.35761719 46.74929688 -22.38085938 45.58984375 C-22.59007007 39.08529318 -23.14102591 33.88489558 -26 28 C-34.65369868 21.16813262 -50.01582186 22.68115677 -60.60473633 22.73925781 C-62.95875123 22.75009786 -65.31202195 22.73923541 -67.66601562 22.7265625 C-69.18229333 22.72788238 -70.69857057 22.73044123 -72.21484375 22.734375 C-72.90867661 22.73032654 -73.60250946 22.72627808 -74.31736755 22.72210693 C-78.57626282 22.76289215 -82.03749118 23.44963715 -86 25 C-87.51907 33.03301137 -88.35714273 40.8527476 -88.59765625 49.01953125 C-88.63684677 50.12117111 -88.67603729 51.22281097 -88.71641541 52.35783386 C-88.83915424 55.84251599 -88.95137481 59.32742998 -89.0625 62.8125 C-89.21657732 67.40246657 -89.37500828 71.9922728 -89.53515625 76.58203125 C-89.57258942 77.67242706 -89.61002258 78.76282288 -89.64859009 79.88626099 C-89.93501102 87.93889728 -90.367758 95.96695411 -91 104 C-57.30144866 103.64683355 -57.30144866 103.64683355 -23.81787109 100.14599609 C-23.21797363 100.09781738 -22.61807617 100.04963867 -22 100 C-21.67 100.33 -21.34 100.66 -21 101 C-21.36217635 106.4326453 -22.29922516 111.52896709 -23.546875 116.828125 C-23.81854492 117.98731445 -24.09021484 119.14650391 -24.37011719 120.34082031 C-24.57797852 121.21834961 -24.78583984 122.09587891 -25 123 C-25.63289948 122.99777939 -26.26579895 122.99555878 -26.9178772 122.99327087 C-33.57024566 122.97095949 -40.2226033 122.95598682 -46.875 122.94506836 C-49.3499393 122.94007336 -51.82487569 122.93327509 -54.29980469 122.92456055 C-57.87956462 122.91228131 -61.45928518 122.90672321 -65.0390625 122.90234375 C-66.12611481 122.89718246 -67.21316711 122.89202118 -68.3331604 122.88670349 C-76.25837581 122.8861388 -84.10275552 123.34771299 -92 124 C-92.06977948 132.18909442 -92.12295211 140.37806279 -92.15543652 148.56738186 C-92.17103429 152.37079372 -92.19216348 156.17400085 -92.22631836 159.97729492 C-92.25912385 163.65370229 -92.2768972 167.32991383 -92.28463173 171.00645638 C-92.29013751 172.40296571 -92.30088814 173.79946539 -92.31719017 175.19589043 C-92.6886131 186.51908425 -92.6886131 186.51908425 -89 197 C-84.86132422 200.05637081 -81.34468763 200.36254157 -76.2890625 200.29296875 C-74.42314453 200.2784668 -74.42314453 200.2784668 -72.51953125 200.26367188 C-71.23433594 200.23853516 -69.94914062 200.21339844 -68.625 200.1875 C-67.31660156 200.17396484 -66.00820312 200.16042969 -64.66015625 200.14648438 C-61.43968156 200.1112237 -58.22005394 200.06193633 -55 200 C-53.70867215 203.87398355 -54.58886428 206.81988786 -55.4375 210.6875 C-55.58509766 211.38939453 -55.73269531 212.09128906 -55.88476562 212.81445312 C-56.2495932 214.54444194 -56.62388689 216.27242963 -57 218 C-57.95028076 217.96970703 -58.90056152 217.93941406 -59.87963867 217.90820312 C-69.89705277 217.59205978 -79.91506237 217.30947608 -89.9342041 217.05395508 C-91.72282325 217.00723939 -93.51132761 216.95616747 -95.29980469 216.90429688 C-109.14121112 216.52587777 -122.55074664 217.85948607 -136.26538086 219.72460938 C-139.16370763 220.01648623 -142.08701353 220 -145 220 C-144.505 212.575 -144.505 212.575 -144 205 C-142.9275 204.62875 -141.855 204.2575 -140.75 203.875 C-128.25198597 199.52793102 -128.25198597 199.52793102 -120 190 C-118.21682378 184.25838917 -118.61273459 178.06012832 -118.453125 172.1015625 C-118.43243202 171.36277485 -118.41173904 170.6239872 -118.39041901 169.86281204 C-117.7543644 146.45623975 -117.77712805 123.03679203 -117.7611804 99.6232326 C-117.7563964 92.72925177 -117.73869892 85.83546377 -117.7101047 78.94154108 C-117.68585142 72.87864373 -117.67816141 66.81583824 -117.67642975 60.75288773 C-117.67341739 58.20367988 -117.66543718 55.65447258 -117.65224457 53.10529709 C-117.63516558 49.56402305 -117.63706469 46.02323223 -117.64355469 42.48193359 C-117.6343399 41.44718903 -117.62512512 40.41244446 -117.6156311 39.34634399 C-117.6507476 33.22057923 -118.19939701 27.5500763 -121 22 C-123.23647631 20.88176185 -124.64891529 20.80603939 -127.1328125 20.68359375 C-128.34130859 20.62075195 -128.34130859 20.62075195 -129.57421875 20.55664062 C-130.41597656 20.51732422 -131.25773437 20.47800781 -132.125 20.4375 C-132.97449219 20.39431641 -133.82398438 20.35113281 -134.69921875 20.30664062 C-136.79928223 20.20045764 -138.89961948 20.09971503 -141 20 C-141.16321169 15.5116784 -141.02325639 11.59485687 -139.9921875 7.21484375 C-139.80769043 6.42070068 -139.62319336 5.62655762 -139.43310547 4.80834961 C-139.29018066 4.21159424 -139.14725586 3.61483887 -139 3 C-137.81381073 3.00444122 -136.62762146 3.00888245 -135.40548706 3.01345825 C-124.083413 3.05446318 -112.7613545 3.08420024 -101.43922234 3.10362434 C-95.6220471 3.11394693 -89.80493302 3.1278879 -83.98779297 3.15087891 C-43.83531951 3.56805407 -43.83531951 3.56805407 -3.85498047 0.30908203 C-2.58283691 0.20708496 -1.31069336 0.10508789 0 0 Z " fill="#E6B8A5" transform="translate(1159,626)"/>
<path d="M0 0 C-0.33 4.95 -0.66 9.9 -1 15 C-5.1015625 15.9765625 -5.1015625 15.9765625 -9.203125 16.953125 C-12.36706775 18.13739407 -13.87146182 19.40279286 -16 22 C-17.22408554 25.67225661 -17.34072806 29.19504721 -17.52734375 33.02734375 C-17.58933205 34.22568092 -17.58933205 34.22568092 -17.65257263 35.44822693 C-18.08571595 44.14922269 -18.35120826 52.85363416 -18.5625 61.5625 C-18.58268188 62.39207214 -18.60286377 63.22164429 -18.62365723 64.07635498 C-18.76570814 70.05060641 -18.88810855 76.02511328 -19 82 C-19.01544861 82.80044739 -19.03089722 83.60089478 -19.04681396 84.42559814 C-19.13187403 88.95968469 -19.19633576 93.49328609 -19.23117065 98.02804565 C-19.24935702 100.05339341 -19.2817668 102.07859807 -19.31469727 104.10375977 C-19.36290101 117.67004533 -17.17700615 130.83306197 -7.9609375 141.3203125 C1.99726407 150.85625817 13.20031662 152.39409557 26.43359375 152.21875 C31.94884819 152.03758788 36.85575982 151.00053785 42 149 C42.72445313 148.73316406 43.44890625 148.46632813 44.1953125 148.19140625 C51.31713521 145.1449992 56.00305143 139.52477286 59.3125 132.625 C62.96131088 123.19652349 63.28790654 114.02506262 63.1875 104 C63.17985377 102.60132051 63.17262533 101.20263868 63.16577148 99.80395508 C63.07805971 86.09750893 62.81714638 72.39165084 62.5625 58.6875 C62.54303314 57.60041748 62.52356628 56.51333496 62.50350952 55.39331055 C63.32719614 36.18195727 63.32719614 36.18195727 59 18 C55.43954823 16.81318274 52.56191663 16.90310168 48.8125 16.9375 C47.54019531 16.94652344 46.26789063 16.95554687 44.95703125 16.96484375 C43.98121094 16.97644531 43.00539063 16.98804688 42 17 C40.79779797 13.46905698 41.20467651 10.87101018 41.9375 7.25 C42.13214844 6.26515625 42.32679687 5.2803125 42.52734375 4.265625 C42.76130859 3.14414062 42.76130859 3.14414062 43 2 C43.58944901 1.98969254 44.17889801 1.97938507 44.78620911 1.96876526 C50.96783728 1.85987867 57.1493435 1.74535695 63.33081055 1.62768555 C65.63221667 1.58459772 67.93364941 1.54290648 70.23510742 1.50268555 C73.55916334 1.4443435 76.88308847 1.38083954 80.20703125 1.31640625 C81.2220723 1.29969376 82.23711334 1.28298126 83.28291321 1.26576233 C89.89845383 1.13114663 96.41592753 0.66384082 103 0 C102.67 4.95 102.34 9.9 102 15 C99.00520833 15.71614583 96.01041667 16.43229167 93.015625 17.1484375 C90.42222419 17.88077089 88.29052048 18.59785896 86 20 C84.36163409 23.27673183 84.83765989 26.90785889 84.82641602 30.51025391 C84.8163855 31.83276405 84.8163855 31.83276405 84.80615234 33.18199158 C84.79207574 35.10319243 84.78019006 37.02441027 84.77020454 38.94563675 C84.75378075 41.99990084 84.73053384 45.05404254 84.70530701 48.10824585 C84.63462894 56.79508314 84.57487733 65.48197486 84.52319336 74.16894531 C84.4911034 79.48168283 84.44973819 84.79428672 84.40299797 90.10691452 C84.38713398 92.11999436 84.37474191 94.13310503 84.36609077 96.14622879 C84.27473172 117.1311104 84.02773933 137.62641983 69.109375 154.0859375 C53.50525292 169.16992217 32.93103616 171.62586225 12.20263672 171.47290039 C-3.88261952 171.06874272 -19.23942076 167.64375215 -31.375 156.375 C-46.5104462 140.17059773 -46.12075715 119.09716432 -46.26036072 98.33505249 C-46.28159102 95.19963587 -46.30858855 92.06431403 -46.33703613 88.92895508 C-46.40645068 81.15375585 -46.46640585 73.37848972 -46.52606201 65.60321045 C-46.576972 59.00662898 -46.63174199 52.41010266 -46.69187927 45.81359863 C-46.71844417 42.72307975 -46.73925222 39.63255552 -46.7598877 36.54199219 C-46.77648373 34.65689846 -46.79335495 32.77180713 -46.81054688 30.88671875 C-46.81473129 30.02646591 -46.81891571 29.16621307 -46.82322693 28.27989197 C-46.85858767 24.94213258 -46.93733804 22.18798588 -48 19 C-51.79441811 16.9352896 -55.04809172 16.78127674 -59.3125 16.875 C-60.38113281 16.89304687 -61.44976563 16.91109375 -62.55078125 16.9296875 C-63.35902344 16.95289063 -64.16726563 16.97609375 -65 17 C-64.85930804 14.87465341 -64.71229079 12.74972471 -64.5625 10.625 C-64.48128906 9.44164062 -64.40007812 8.25828125 -64.31640625 7.0390625 C-64 4 -64 4 -63 2 C-62.38549484 1.98969254 -61.77098969 1.97938507 -61.13786316 1.96876526 C-54.69671635 1.85992582 -48.25568787 1.74539915 -41.81469727 1.62768555 C-39.41628514 1.5845829 -37.01784718 1.54289241 -34.61938477 1.50268555 C-31.15633382 1.44438018 -27.69341 1.38086481 -24.23046875 1.31640625 C-23.17168015 1.29969376 -22.11289154 1.28298126 -21.02201843 1.26576233 C-14.01374718 1.12875218 -6.97635156 0 0 0 Z " fill="#D0A088" transform="translate(1241,674)"/>
<path d="M0 0 C0.94953918 1.76464844 0.94953918 1.76464844 1.59301758 4.109375 C1.84520554 4.99412506 2.09739349 5.87887512 2.35722351 6.79043579 C2.74694084 8.25542007 2.74694084 8.25542007 3.14453125 9.75 C3.43088943 10.76943695 3.71724762 11.7888739 4.01228333 12.83920288 C4.63348724 15.05636438 5.24708895 17.27566641 5.85406494 19.49676514 C7.48510757 25.45848924 9.17543729 31.40349751 10.85546875 37.3515625 C11.19904419 38.57420807 11.54261963 39.79685364 11.89660645 41.05654907 C19.59830598 68.41138216 28.01158888 95.58256403 37.125 122.5 C37.38935852 123.28832214 37.65371704 124.07664429 37.92608643 124.88885498 C42.1443515 139.11027308 42.1443515 139.11027308 51.0625 150.375 C56.04911157 152.79073627 61.61480411 153.83276542 67 155 C66.85970581 157.1462026 66.71261836 159.29196218 66.5625 161.4375 C66.44068359 163.22994141 66.44068359 163.22994141 66.31640625 165.05859375 C66 168 66 168 65 169 C62.66976386 169.06450414 60.36833475 169.06602564 58.0390625 169.02734375 C56.53548709 169.01317738 55.03190589 168.99961481 53.52832031 168.98657227 C52.72898071 168.978284 51.92964111 168.96999573 51.1060791 168.9614563 C35.2338249 168.80820022 19.49323995 169.28631105 3.65869141 170.37670898 C2.59066788 170.44823685 2.59066788 170.44823685 1.50106812 170.52120972 C-0.41994514 170.65154446 -2.34037243 170.79043594 -4.26074219 170.92993164 C-5.16469727 170.9530542 -6.06865234 170.97617676 -7 171 C-8 170 -8 170 -8.1328125 167.09375 C-8.13023437 165.9078125 -8.12765625 164.721875 -8.125 163.5 C-8.12757813 162.3140625 -8.13015625 161.128125 -8.1328125 159.90625 C-8 157 -8 157 -7 156 C-3.48403279 155.3737655 0.03399904 154.80545208 3.56640625 154.28125 C9.81959156 153.35055208 9.81959156 153.35055208 15 150 C16.42650644 142.17298442 12.92426032 134.49721 10.5 127.125 C9.85497809 125.1317332 9.2132233 123.13746807 8.57409668 121.14230347 C7.99740445 119.34701601 7.41201285 117.55452992 6.82617188 115.76220703 C6 113 6 113 6 111 C-12.4593927 110.77225766 -30.62387563 110.94187407 -49 113 C-50.41726034 116.69446593 -51.82258221 120.39324094 -53.2175293 124.09619141 C-53.92471406 125.96619031 -54.6409873 127.83274408 -55.35742188 129.69921875 C-59.51408886 139.76563392 -59.51408886 139.76563392 -59.375 150.375 C-57.02238672 153.15536115 -53.96873658 153.88585244 -50.42871094 154.30297852 C-49.09501465 154.34056274 -49.09501465 154.34056274 -47.734375 154.37890625 C-46.76242187 154.41306641 -45.79046875 154.44722656 -44.7890625 154.48242188 C-43.28472656 154.52206055 -43.28472656 154.52206055 -41.75 154.5625 C-39.74466393 154.6221524 -37.73943952 154.68573406 -35.734375 154.75390625 C-34.40744629 154.78979858 -34.40744629 154.78979858 -33.05371094 154.82641602 C-31 155 -31 155 -30 156 C-30.0643113 157.79487005 -30.20139986 159.58738778 -30.375 161.375 C-30.46523438 162.35210938 -30.55546875 163.32921875 -30.6484375 164.3359375 C-31 167 -31 167 -32 170 C-32.66902344 169.96970703 -33.33804688 169.93941406 -34.02734375 169.90820312 C-56.35692964 168.93409367 -78.65314551 168.88958225 -101 169 C-100.67 164.38 -100.34 159.76 -100 155 C-97.81901042 154.08854167 -95.63802083 153.17708333 -93.45703125 152.265625 C-87.89806911 149.40218504 -84.95810234 145.88568756 -82.30859375 140.31640625 C-81.97226425 139.62511124 -81.63593475 138.93381622 -81.28941345 138.22157288 C-76.29926324 127.71047498 -72.25103923 116.78429599 -68.0625 105.9375 C-66.38328022 101.61930741 -64.70016594 97.30263617 -63.01688194 92.98602676 C-62.25997071 91.04408704 -61.50403076 89.10177139 -60.74824524 87.15939331 C-56.90612294 77.29053412 -53.01854499 67.4401347 -49.109375 57.59765625 C-48.68169484 56.52083241 -48.68169484 56.52083241 -48.24537468 55.42225456 C-46.26916302 50.44760745 -44.29105805 45.47371426 -42.3125 40.5 C-40.44846372 35.81384504 -38.5849133 31.12749797 -36.72252655 26.44068718 C-36.01223581 24.65400583 -35.30096528 22.8677141 -34.58966064 21.08143616 C-34.15957703 19.99946457 -33.72949341 18.91749298 -33.28637695 17.80273438 C-32.88722076 16.80219025 -32.48806458 15.80164612 -32.07681274 14.77078247 C-31.11489523 12.29564071 -30.23112162 9.80639054 -29.36010742 7.29833984 C-28 4 -28 4 -25.25 2.6328125 C-24.1775 2.46523438 -23.105 2.29765625 -22 2.125 C-20.84628906 1.92648437 -19.69257813 1.72796875 -18.50390625 1.5234375 C-17.34761719 1.35070312 -16.19132812 1.17796875 -15 1 C-12.97877024 0.58526064 -10.95789978 0.16876388 -8.9375 -0.25 C-5.60325629 -0.91183484 -3.19912655 -1.26352666 0 0 Z M-20 31 C-22.63327021 38.06153636 -25.26584314 45.12333238 -27.89794922 52.18530273 C-28.7919973 54.583799 -29.68620043 56.98223748 -30.58056641 59.38061523 C-31.87183515 62.84343237 -33.16253176 66.30646231 -34.453125 69.76953125 C-34.84808167 70.82831985 -35.24303833 71.88710846 -35.64996338 72.97798157 C-36.40358864 75.00083101 -37.1553135 77.02438973 -37.90490723 79.04873657 C-38.65440848 81.0686345 -39.41051065 83.08609199 -40.17224121 85.10140991 C-40.53918091 86.08332306 -40.90612061 87.06523621 -41.28417969 88.0769043 C-41.61440125 88.95267624 -41.9446228 89.82844818 -42.28485107 90.73075867 C-43.15028789 93.08033507 -43.15028789 93.08033507 -43 96 C-38.52002309 96.02504287 -34.04008515 96.04301921 -29.56005859 96.05493164 C-28.04149667 96.05990685 -26.5229394 96.06668941 -25.00439453 96.07543945 C-15.94577299 96.1262634 -7.0210084 95.96778356 2 95 C-7.87050353 62.95936469 -7.87050353 62.95936469 -18 31 C-18.66 31 -19.32 31 -20 31 Z " fill="#A87251" transform="translate(408,674)"/>
<path d="M0 0 C1.50471919 4.07698177 0.76755937 7.67803901 0.0390625 11.8828125 C-0.12597275 12.86518387 -0.12597275 12.86518387 -0.29434204 13.86740112 C-0.64617444 15.95479943 -1.00977067 18.03990768 -1.375 20.125 C-1.84663505 22.85585692 -2.31268584 25.58759847 -2.7734375 28.3203125 C-2.88467957 28.97823792 -2.99592163 29.63616333 -3.11053467 30.31402588 C-4.02499007 35.85777092 -4.6165592 41.39643467 -5 47 C-7.4788213 47.19389096 -9.95780931 47.38040123 -12.4375 47.5625 C-13.49807617 47.64661133 -13.49807617 47.64661133 -14.58007812 47.73242188 C-16.38427837 47.86190993 -18.19231952 47.93521608 -20 48 C-21.55096889 46.44903111 -21.16288604 44.92958151 -21.2109375 42.7734375 C-21.23929688 41.90589844 -21.26765625 41.03835938 -21.296875 40.14453125 C-21.3482919 38.32180215 -21.392751 36.49886127 -21.4296875 34.67578125 C-21.6637765 28.05301327 -22.71908047 23.28452412 -26.5625 17.75 C-33.18385779 12.99620467 -41.52847012 12.46993279 -49.4375 12.5625 C-50.35619873 12.57079834 -51.27489746 12.57909668 -52.22143555 12.58764648 C-62.15091496 12.8348936 -70.09828754 14.97473633 -77.3984375 22.01953125 C-80.66329837 26.05681042 -82.16450171 30.1564705 -81.86328125 35.36328125 C-80.54395107 42.56512949 -77.4899691 47.11780713 -71.49609375 51.3125 C-66.35709866 54.84746923 -61.05437572 57.92623859 -55.5625 60.875 C-54.14167114 61.64589966 -54.14167114 61.64589966 -52.69213867 62.43237305 C-46.48771529 65.76413857 -40.20352706 68.85714898 -33.8125 71.8125 C-17.68901638 79.29710378 -3.46883506 88.32791234 3.375 105.4375 C5.61714859 118.21774698 3.24901522 129.84919581 -4.1328125 140.5390625 C-15.10351768 154.99836013 -31.53169925 161.58782667 -48.95703125 164.60742188 C-54.52628388 165.32591981 -60.07913883 165.33891481 -65.6875 165.3125 C-66.92193848 165.30758545 -68.15637695 165.3026709 -69.42822266 165.29760742 C-83.47656359 165.11764247 -97.18305393 163.0926932 -110 157 C-112.32389561 153.51415658 -112.14245168 152.76083675 -111.6875 148.74609375 C-111.20681198 144.05160972 -110.80142668 139.36994816 -110.5 134.66015625 C-110.4175 133.41298828 -110.335 132.16582031 -110.25 130.88085938 C-110.08155065 128.30805881 -109.91492125 125.73513851 -109.75 123.16210938 C-109.6675 121.92396484 -109.585 120.68582031 -109.5 119.41015625 C-109.4278125 118.29777588 -109.355625 117.18539551 -109.28125 116.03930664 C-109.02716791 113.29358799 -108.60031944 110.68861818 -108 108 C-104.83754459 106.9458482 -102.13051782 106.68724328 -98.8125 106.4375 C-97.72582031 106.35371094 -96.63914062 106.26992188 -95.51953125 106.18359375 C-94.68808594 106.12300781 -93.85664062 106.06242188 -93 106 C-91.50957247 108.98085505 -91.75597714 112.0994392 -91.625 115.375 C-91.1392131 124.61847406 -90.45176464 134.83137262 -84 142 C-76.75986088 147.33938661 -69.43440908 147.2059826 -60.8125 147.25 C-59.3265332 147.2809375 -59.3265332 147.2809375 -57.81054688 147.3125 C-47.24639774 147.36791849 -38.11089569 145.0184077 -30 138 C-25.72581586 133.18268748 -24.78171903 127.30038252 -25 121 C-26.10964406 113.94214769 -30.46862101 109.21660677 -36 105 C-46.53941592 98.16633116 -58.12591181 92.83185962 -69.41210938 87.37402344 C-83.63611006 80.415485 -100.93062735 71.24288504 -107.375 55.9375 C-110.97469725 44.97273181 -109.74616266 33.74447089 -104.78125 23.48046875 C-96.81612502 9.07686775 -83.68854119 0.572335 -68.1015625 -3.99609375 C-50.14823328 -8.70023222 -15.98685368 -11.11382062 0 0 Z " fill="#BC886C" transform="translate(1484,680)"/>
<path d="M0 0 C0.495 0.495 0.495 0.495 1 1 C0.90968426 3.35694954 0.75311872 5.71153582 0.5625 8.0625 C0.46066406 9.35285156 0.35882812 10.64320313 0.25390625 11.97265625 C0.12822266 13.47119141 0.12822266 13.47119141 0 15 C-0.83978394 15.12060791 -0.83978394 15.12060791 -1.6965332 15.24365234 C-4.23640115 15.61292486 -6.77439215 15.99382568 -9.3125 16.375 C-10.63411133 16.56449219 -10.63411133 16.56449219 -11.98242188 16.7578125 C-12.82998047 16.88671875 -13.67753906 17.015625 -14.55078125 17.1484375 C-15.33106689 17.26364746 -16.11135254 17.37885742 -16.9152832 17.49755859 C-19.28682157 17.94254783 -19.28682157 17.94254783 -22 20 C-23.1745014 23.64091352 -22.95901312 26.31152391 -22.05981445 29.98583984 C-21.82634811 30.95494293 -21.59288177 31.92404602 -21.3523407 32.92251587 C-21.08782608 33.96644501 -20.82331146 35.01037415 -20.55078125 36.0859375 C-20.14258904 37.73751358 -20.14258904 37.73751358 -19.72615051 39.42245483 C-16.51267868 52.24053716 -12.86269759 64.93335094 -9.1875 77.625 C-8.4786694 80.08929387 -7.77034037 82.55373206 -7.0625 85.01831055 C-4.05121513 95.49183103 -1.01830709 105.95895194 2.04296875 116.41796875 C2.36972343 117.53600891 2.36972343 117.53600891 2.70307922 118.67663574 C3.66672298 121.9726867 4.63499756 125.26711324 5.61254883 128.55908203 C5.93634521 129.65978027 6.2601416 130.76047852 6.59375 131.89453125 C6.86896484 132.82112549 7.14417969 133.74771973 7.42773438 134.70239258 C8 137 8 137 8 140 C10.37098893 137.86068184 11.6021836 136.04028191 12.75488281 133.0715332 C13.06716324 132.27842743 13.37944366 131.48532166 13.70118713 130.66818237 C14.03182663 129.80444 14.36246613 128.94069763 14.703125 128.05078125 C15.05789413 127.14224396 15.41266327 126.23370667 15.77818298 125.29763794 C16.94366784 122.30570878 18.09719343 119.30933477 19.25 116.3125 C20.05601844 114.23235673 20.86241899 112.15236148 21.66918945 110.07250977 C24.12811731 103.72085308 26.56771519 97.3619014 29 91 C29.36937683 90.03404907 29.73875366 89.06809814 30.11932373 88.07287598 C39.58679216 63.34729707 39.58679216 63.34729707 48.375 38.375 C48.6433667 37.57634521 48.9117334 36.77769043 49.18823242 35.95483398 C51.65739524 28.71327795 51.65739524 28.71327795 51.375 21.25 C49.58927156 18.32789891 48.22634913 18.03519529 45 17 C42.30006096 16.64023194 42.30006096 16.64023194 39.48046875 16.5859375 C38.45888672 16.54726563 37.43730469 16.50859375 36.38476562 16.46875 C34.80211914 16.42234375 34.80211914 16.42234375 33.1875 16.375 C32.11306641 16.33632813 31.03863281 16.29765625 29.93164062 16.2578125 C27.28792912 16.16381387 24.6442195 16.07815427 22 16 C21 11 21 11 23 1 C46.1 1.33 69.2 1.66 93 2 C92 13 92 13 91 16 C88.57745052 16.84789232 86.15042559 17.33351795 83.640625 17.86328125 C77.31990713 20.58418199 74.96224637 26.83208632 72.51330566 32.84060669 C72.11188354 33.85742523 71.71046143 34.87424377 71.296875 35.921875 C70.64446838 37.53544388 70.64446838 37.53544388 69.97888184 39.18161011 C68.55893054 42.70035018 67.15450807 46.22507077 65.75 49.75 C64.76115978 52.20794972 63.77123992 54.66546535 62.78027344 57.12255859 C60.78226019 62.07958296 58.79101742 67.03925829 56.8046875 72.00097656 C54.35121272 78.1282092 51.88406291 84.24976078 49.40625 90.3671875 C49.05468842 91.23524521 48.70312683 92.10330292 48.34091187 92.99766541 C47.64967238 94.70393297 46.95829919 96.41014637 46.26678467 98.11630249 C44.91430809 101.4532476 43.56270421 104.79054576 42.21127319 108.12791443 C41.53501234 109.79786698 40.85860086 111.46775854 40.18203735 113.1375885 C38.30807126 117.76396487 36.438339 122.392013 34.57324219 127.02197266 C32.49975176 132.16869373 30.41867974 137.31229411 28.33288574 142.45404053 C27.53400679 144.42725943 26.7378186 146.40157006 25.94445801 148.37701416 C24.84760652 151.10711522 23.74135488 153.83322292 22.6328125 156.55859375 C22.30860321 157.37205765 21.98439392 158.18552155 21.65036011 159.02363586 C21.34437897 159.77050156 21.03839783 160.51736725 20.72314453 161.28686523 C20.46131378 161.93517807 20.19948303 162.58349091 19.92971802 163.25144958 C18.37813429 166.16956274 16.79937651 167.72549459 13.67163086 168.79956055 C12.33177124 169.09020386 12.33177124 169.09020386 10.96484375 169.38671875 C9.99095703 169.60263672 9.01707031 169.81855469 8.01367188 170.04101562 C6.99853516 170.25435547 5.98339844 170.46769531 4.9375 170.6875 C3.91849609 170.91244141 2.89949219 171.13738281 1.84960938 171.36914062 C-5.63053286 173 -5.63053286 173 -8 173 C-8.34554932 171.88294678 -8.69109863 170.76589355 -9.04711914 169.61499023 C-17.88086086 141.07422323 -26.83657945 112.57475185 -35.9911499 84.13519287 C-37.04687078 80.85434016 -38.10082837 77.57292371 -39.15478516 74.29150391 C-40.97234552 68.63646345 -42.79791304 62.98405907 -44.62896729 57.33337402 C-45.32764134 55.17446597 -46.0242585 53.01489104 -46.71868896 50.85461426 C-47.68520222 47.85025768 -48.65990705 44.84867775 -49.63671875 41.84765625 C-50.05924675 40.52584099 -50.05924675 40.52584099 -50.49031067 39.17732239 C-54.11862115 27.82824785 -54.11862115 27.82824785 -62.5625 20.03125 C-67.204789 18.06720466 -72.0753632 17.00955054 -77 16 C-76.85923685 14.0412957 -76.7122324 12.08303907 -76.5625 10.125 C-76.48128906 9.03445313 -76.40007812 7.94390625 -76.31640625 6.8203125 C-76 4 -76 4 -75 2 C-74.36487991 1.98969254 -73.72975983 1.97938507 -73.07539368 1.96876526 C-66.40686661 1.85976725 -59.73844965 1.74525745 -53.07006836 1.62768555 C-50.58832119 1.58463269 -48.10655 1.54293974 -45.62475586 1.50268555 C-42.03752435 1.44425688 -38.45041044 1.38077994 -34.86328125 1.31640625 C-33.77106766 1.29969376 -32.67885406 1.28298126 -31.55354309 1.26576233 C-24.97696799 1.14202964 -18.45811268 0.78323302 -11.90422058 0.21983337 C-7.90981679 -0.08252082 -4.0037937 -0.13345979 0 0 Z " fill="#BA876A" transform="translate(540,674)"/>
<path d="M0 0 C7.26 0 14.52 0 22 0 C22 45.21 22 90.42 22 137 C-13.31 137 -48.62 137 -85 137 C-85 89 -85 89 -75.75 76.4375 C-67.35442178 69.8760909 -67.35442178 69.8760909 -63.91845703 70.19042969 C-61.81898584 71.07638622 -60.45367857 72.06414562 -58.7578125 73.58203125 C-58.16613281 74.10216797 -57.57445312 74.62230469 -56.96484375 75.15820312 C-56.35769531 75.70412109 -55.75054688 76.25003906 -55.125 76.8125 C-50.91653909 80.56391301 -46.77250317 83.98617154 -42 87 C-41.38253906 86.43152344 -40.76507812 85.86304688 -40.12890625 85.27734375 C-34.60744079 80.2433136 -28.9740083 75.48772121 -23 71 C-18.69167431 73.38367178 -15.13557466 76.29131381 -11.4375 79.5 C-10.31208786 80.46978372 -9.18580707 81.43856044 -8.05859375 82.40625 C-7.56673584 82.83228516 -7.07487793 83.25832031 -6.56811523 83.69726562 C-4.76388209 85.19615837 -2.8764966 86.59262755 -1 88 C-0.67 58.96 -0.34 29.92 0 0 Z " fill="#ECBEAC" transform="translate(1039,223)"/>
<path d="M0 0 C-0.33 4.95 -0.66 9.9 -1 15 C-3.99479167 15.68359375 -6.98958333 16.3671875 -9.984375 17.05078125 C-13.06491766 18.02043393 -14.66563553 18.80407123 -17 21 C-17.88372686 23.47469683 -17.88372686 23.47469683 -18.18359375 26.328125 C-18.33038574 27.40126953 -18.47717773 28.47441406 -18.62841797 29.58007812 C-19.24957096 35.29697113 -19.70028207 41.01120813 -20.0625 46.75 C-20.17948242 48.44189453 -20.17948242 48.44189453 -20.29882812 50.16796875 C-21.66954394 70.85331643 -22.20850244 91.53234604 -22.24023438 112.26123047 C-22.25014778 116.18346808 -22.28140676 120.10522357 -22.3125 124.02734375 C-22.31901404 126.54166362 -22.32427074 129.05598714 -22.328125 131.5703125 C-22.3404718 132.73273468 -22.3528186 133.89515686 -22.36553955 135.09280396 C-22.37008933 142.97717535 -22.37008933 142.97717535 -19 150 C-13.68613122 152.92684518 -7.29320791 152.34438935 -1.375 152.3125 C-0.30064697 152.30686035 0.77370605 152.3012207 1.88061523 152.29541016 C16.3488693 152.11351599 16.3488693 152.11351599 28.546875 145.03515625 C34.57628604 136.59073917 36.49803517 124.91519397 39 115 C46.92 114.505 46.92 114.505 55 114 C54.34248172 124.69076018 52.98581228 135.216596 51.47094727 145.81518555 C51.05806563 148.7186837 50.65874234 151.62385924 50.25976562 154.52929688 C49.99821523 156.3777203 49.73587507 158.22603218 49.47265625 160.07421875 C49.3548732 160.9418132 49.23709015 161.80940765 49.11573792 162.70329285 C48.22887123 168.77112877 48.22887123 168.77112877 46 171 C43.45765686 171.1645813 43.45765686 171.1645813 40.19946289 171.04345703 C38.97961197 171.00326447 37.75976105 170.9630719 36.50294495 170.92166138 C35.15951114 170.8671496 33.81608168 170.81253035 32.47265625 170.7578125 C31.08617035 170.7091214 29.6996487 170.66143896 28.31309509 170.61471558 C24.64243147 170.48873689 20.97230768 170.35097636 17.30218506 170.21020508 C10.79700438 169.96272634 4.29107612 169.73490062 -2.21484375 169.5078125 C-2.91380453 169.48334297 -3.61276531 169.45887344 -4.33290672 169.43366241 C-19.723623 168.90002735 -34.95880508 168.54430055 -50.3125 170 C-62.93232676 171.13955727 -62.93232676 171.13955727 -68 171 C-67.85816304 169.24967156 -67.71136571 167.49974466 -67.5625 165.75 C-67.48128906 164.77546875 -67.40007812 163.8009375 -67.31640625 162.796875 C-67.15978516 161.41242188 -67.15978516 161.41242188 -67 160 C-66.92136719 159.25105469 -66.84273437 158.50210938 -66.76171875 157.73046875 C-66 156 -66 156 -63.890625 155.12890625 C-62.58351562 154.84853516 -62.58351562 154.84853516 -61.25 154.5625 C-56.56042516 153.32311236 -54.01646301 151.95910771 -51 148 C-48.66893063 143.53468665 -48.69417191 139.16896813 -48.68115234 134.24438477 C-48.67110672 133.37191101 -48.6610611 132.49943726 -48.65071106 131.6005249 C-48.61982466 128.71415835 -48.60280247 125.82788606 -48.5859375 122.94140625 C-48.56719573 120.91616554 -48.54762016 118.8909324 -48.5272522 116.8657074 C-48.47586042 111.51977156 -48.43633265 106.17380947 -48.39910889 100.82775879 C-48.35953377 95.46778554 -48.30794578 90.10792975 -48.2578125 84.74804688 C-48.1246953 70.12772847 -48.1246953 70.12772847 -48.03289795 55.5071106 C-48.01435825 51.68253262 -47.97291991 47.85889712 -47.92071533 44.03463745 C-47.90212061 42.07900233 -47.88378167 40.12336475 -47.86572266 38.16772461 C-47.84952063 37.27987809 -47.8333186 36.39203157 -47.8166256 35.47728062 C-47.77929961 29.88502902 -48.03553931 24.29687007 -50 19 C-53.4193612 16.64771531 -56.68534986 16.80018074 -60.75 16.9375 C-62.49929724 16.99128855 -64.24999669 17.02055373 -66 17 C-66.33 16.67 -66.66 16.34 -67 16 C-66.9358534 13.83067876 -66.79900318 11.66328277 -66.625 9.5 C-66.53476563 8.3140625 -66.44453125 7.128125 -66.3515625 5.90625 C-66 3 -66 3 -65 2 C-63.48834107 1.88263367 -61.97136814 1.8327387 -60.45532227 1.81054688 C-59.48663712 1.79382935 -58.51795197 1.77711182 -57.51991272 1.7598877 C-56.46275558 1.74631226 -55.40559845 1.73273682 -54.31640625 1.71875 C-52.68940041 1.69113586 -52.68940041 1.69113586 -51.02952576 1.66296387 C-47.54057431 1.60400916 -44.05157095 1.55136281 -40.5625 1.5 C-37.10557074 1.44840764 -33.648703 1.39529278 -30.19187927 1.33703613 C-28.03818454 1.30077073 -25.88442226 1.26825544 -23.73060608 1.2401123 C-18.19521797 1.14730092 -12.75735106 0.85956182 -7.25816345 0.2088623 C-4.84806114 -0.01405315 -2.42038932 0 0 0 Z " fill="#935B36" transform="translate(240,674)"/>
<path d="M0 0 C0.09038099 5.15171623 -0.15318867 9.91913204 -1 15 C-1.90363281 15.20496094 -2.80726562 15.40992188 -3.73828125 15.62109375 C-5.50751953 16.02521484 -5.50751953 16.02521484 -7.3125 16.4375 C-8.48425781 16.70433594 -9.65601563 16.97117187 -10.86328125 17.24609375 C-14.00236971 17.95313969 -14.00236971 17.95313969 -17 19 C-19.76155637 25.60664007 -19.6368304 32.8740048 -20 39.9375 C-20.03913513 40.65121765 -20.07827026 41.3649353 -20.11859131 42.10028076 C-21.06233547 59.42970686 -21.57743896 76.77946713 -22.125 94.125 C-22.14733704 94.82622356 -22.16967407 95.52744713 -22.19268799 96.24991989 C-24.62022155 123.95373008 -24.62022155 123.95373008 -21 151 C-17.86882433 153.08745045 -16.93053776 153.27653996 -13.33203125 153.4140625 C-11.99301758 153.47207031 -11.99301758 153.47207031 -10.62695312 153.53125 C-9.23379883 153.57765625 -9.23379883 153.57765625 -7.8125 153.625 C-6.40194336 153.68300781 -6.40194336 153.68300781 -4.96289062 153.7421875 C-2.6421229 153.83643187 -0.32136252 153.92204025 2 154 C1.85816304 155.75032844 1.71136571 157.50025534 1.5625 159.25 C1.44068359 160.71179688 1.44068359 160.71179688 1.31640625 162.203125 C1.04845144 164.57171321 0.60416008 166.70376168 0 169 C-1.11632813 168.98952637 -2.23265625 168.97905273 -3.3828125 168.96826172 C-23.32293196 168.79744934 -43.06623579 168.66436276 -62.91552734 170.8125 C-65.6159214 171.05540263 -68.29102381 171.07093882 -71 171 C-70.88623383 168.87436897 -70.75864369 166.7494739 -70.625 164.625 C-70.55539062 163.44164062 -70.48578125 162.25828125 -70.4140625 161.0390625 C-70 158 -70 158 -68 156 C-66.43345582 155.48721036 -64.84623565 155.03615161 -63.25 154.625 C-58.8577609 153.3320465 -55.42281624 152.17236627 -52 149 C-48.68476779 142.36196711 -48.57998163 135.58774358 -48.64355469 128.31738281 C-48.64151031 127.18293228 -48.63946594 126.04848175 -48.63735962 124.87965393 C-48.6343672 121.15397684 -48.65278058 117.42874902 -48.671875 113.703125 C-48.67493495 111.10479848 -48.67680928 108.50647031 -48.67755127 105.90814209 C-48.68214442 100.47466282 -48.69614009 95.04134158 -48.71875 89.60791016 C-48.74768022 82.64161213 -48.75798124 75.67541607 -48.7624321 68.70906448 C-48.76598789 63.3491096 -48.77640369 57.98917739 -48.78830719 52.62923431 C-48.79400467 50.05998676 -48.79876509 47.49073695 -48.80257416 44.9214859 C-48.80944338 41.33596295 -48.82307778 37.75053245 -48.83886719 34.16503906 C-48.83998505 33.10311844 -48.84110291 32.04119781 -48.84225464 30.94709778 C-48.84796478 29.96877487 -48.85367493 28.99045197 -48.85955811 27.98248291 C-48.86253277 27.13598301 -48.86550743 26.28948311 -48.86857224 25.4173317 C-49.00731735 22.86541312 -49.44092612 20.49090075 -50 18 C-54.15626368 16.99073521 -58.04365094 16.89760421 -62.3125 16.9375 C-63.56675781 16.94652344 -64.82101562 16.95554687 -66.11328125 16.96484375 C-67.06589844 16.97644531 -68.01851562 16.98804688 -69 17 C-69.02749766 15.62511713 -69.0466164 14.25006609 -69.0625 12.875 C-69.07410156 12.10929688 -69.08570313 11.34359375 -69.09765625 10.5546875 C-68.98625311 7.64038138 -68.49919958 4.87082942 -68 2 C-67.36043869 1.98969254 -66.72087738 1.97938507 -66.06193542 1.96876526 C-59.36126983 1.85996929 -52.66071913 1.7454381 -45.96020508 1.62768555 C-43.464787 1.58456922 -40.96934382 1.54287944 -38.47387695 1.50268555 C-34.87183086 1.44441398 -31.2699084 1.38088815 -27.66796875 1.31640625 C-26.56543259 1.29969376 -25.46289642 1.28298126 -24.32695007 1.26576233 C-18.29832264 1.15235497 -12.34941795 0.8348544 -6.35151672 0.20762634 C-4 0 -4 0 0 0 Z " fill="#AC7757" transform="translate(1595,674)"/>
<path d="M0 0 C1.9375 1.125 1.9375 1.125 3 3 C3.49573337 6.89504791 3.58016848 9.09493717 1.4375 12.4375 C-1.96719488 14.61999672 -4.03430012 14.63734462 -8 14 C-10.5 11.9375 -10.5 11.9375 -12 9 C-12 5.19715329 -11.7968187 2.98069994 -9.375 0 C-5.91616747 -1.45635054 -3.58701629 -0.91305869 0 0 Z " fill="#E1B29E" transform="translate(1123,346)"/>
<path d="M0 0 C2 1.625 2 1.625 3 4 C2.87988224 7.42335626 2.60726153 9.95416069 0.875 12.9375 C-2.18452459 14.6712306 -4.56817525 14.42145216 -8 14 C-10.4375 12.4375 -10.4375 12.4375 -12 10 C-12.5625 6.5 -12.5625 6.5 -12 3 C-8.33340589 -1.4443565 -5.38867153 -1.59664341 0 0 Z " fill="#E5B7A3" transform="translate(1084,346)"/>
<path d="M0 0 C4.93731454 1.46290801 4.93731454 1.46290801 6.375 4 C6.87073337 7.89504791 6.95516848 10.09493717 4.8125 13.4375 C1.43282196 15.60396028 -0.68483987 15.56288002 -4.625 15 C-7.0625 13.375 -7.0625 13.375 -8.625 11 C-9.1875 8.0625 -9.1875 8.0625 -8.625 5 C-5.91953265 1.14675862 -4.77773264 0 0 0 Z " fill="#DFB09C" transform="translate(1139.625,345)"/>
<path d="M0 0 C3.817383 0.06146055 3.817383 0.06146055 6.0625 1.4375 C8.01674887 4.77121867 8.39766555 7.18412557 7.4375 10.9375 C5.88794182 13.66767393 5.13958301 14.41261583 2.125 15.25 C-0.9879981 15.05940828 -3.10232674 14.78287811 -5.6875 13 C-7.27530416 10.66007808 -7.74003924 9.08417605 -7.875 6.25 C-4.90833333 0.31666667 -4.90833333 0.31666667 0 0 Z " fill="#E3B4A0" transform="translate(1098.875,319.75)"/>
<path d="M0 0 C2.5 2.0625 2.5 2.0625 4 5 C4.0625 8.625 4.0625 8.625 3 12 C0.1628797 14.59393856 -1.28542702 15.02858292 -5.125 14.875 C-9.46808511 13.55319149 -9.46808511 13.55319149 -11 11 C-11.49573337 7.10495209 -11.58016848 4.90506283 -9.4375 1.5625 C-6.03280512 -0.61999672 -3.96569988 -0.63734462 0 0 Z " fill="#E5B7A4" transform="translate(1083,320)"/>
<path d="M0 0 C2.26373102 3.5670913 3.30549648 5.62526583 2.375 9.8125 C1 12 1 12 -2 14 C-5.5772533 14.45667063 -7.33458305 14.43777431 -10.375 12.4375 C-12.5996142 9.1005787 -12.50030235 6.93094707 -12 3 C-8.68838158 -1.51584331 -5.20369298 -1.46068575 0 0 Z " fill="#E3B4A0" transform="translate(1104,346)"/>
</svg>
